<?xml version="1.0" encoding="utf-8"?>
<!-- Generator: Adobe Illustrator 23.0.3, SVG Export Plug-In . SVG Version: 6.00 Build 0)  -->
<svg version="1.1" id="Layer_1" xmlns="http://www.w3.org/2000/svg" xmlns:xlink="http://www.w3.org/1999/xlink" x="0px" y="0px"
	 viewBox="0 0 63 60" style="enable-background:new 0 0 63 60;" xml:space="preserve">
<style type="text/css">
	.st0{fill-rule:evenodd;clip-rule:evenodd;fill:#5ED7C6;}
	.st1{enable-background:new    ;}
	.st2{fill:#FFFFFF;}
</style>
<title>Logo-modo-noc</title>
<desc>Created with Sketch.</desc>
<g id="Clip-3">
</g>
<g>
	<polygon id="Fill-1" class="st0" points="0,0 0,59.1 59.1,59.1 59.1,46.4 54.9,46.4 54.9,54.9 4.2,54.9 4.2,4.2 42.2,4.2 
		42.2,16.9 54.9,16.9 54.9,25.3 59.1,25.3 59.1,12.7 46.4,0 	"/>
	<g class="st1">
		<path class="st2" d="M23,39.3c-0.4,0.5-1,1-1.8,1.4s-1.8,0.6-3.1,0.6c-1.5,0-2.8-0.5-3.8-1.5s-1.5-2.2-1.5-3.8v-2.7
			c0-1.5,0.5-2.8,1.4-3.8c1-1,2.2-1.5,3.7-1.5c1.6,0,2.8,0.4,3.6,1.1s1.2,1.7,1.2,3l0,0.1h-2.4c0-0.7-0.2-1.2-0.6-1.6
			c-0.4-0.4-1-0.6-1.7-0.6c-0.8,0-1.4,0.3-1.9,0.9c-0.5,0.6-0.7,1.4-0.7,2.3v2.7c0,1,0.2,1.8,0.7,2.4s1.2,0.9,2,0.9
			c0.6,0,1.1-0.1,1.4-0.2s0.6-0.3,0.8-0.5v-2.5H18v-1.8h5V39.3z"/>
		<path class="st2" d="M27.9,41h-2.6V28.2h2.6V41z"/>
		<path class="st2" d="M37.9,35.7H33V41h-2.6V28.2h8.4v2H33v3.5h4.9V35.7z"/>
		<path class="st2" d="M50.8,35.8c0,1.6-0.5,2.9-1.5,3.9c-1,1-2.3,1.5-3.9,1.5c-1.6,0-2.9-0.5-3.8-1.5s-1.5-2.3-1.5-3.9v-2.3
			c0-1.6,0.5-2.9,1.5-3.9c1-1,2.3-1.5,3.8-1.5c1.6,0,2.9,0.5,3.9,1.5c1,1,1.5,2.3,1.5,3.9V35.8z M48.3,33.4c0-1-0.2-1.8-0.7-2.5
			s-1.2-1-2.1-1c-0.9,0-1.5,0.3-2,1c-0.5,0.6-0.7,1.5-0.7,2.5v2.3c0,1,0.2,1.8,0.7,2.5s1.2,1,2,1c0.9,0,1.6-0.3,2.1-1
			s0.7-1.5,0.7-2.5V33.4z"/>
		<path class="st2" d="M59.5,37.7c0-0.5-0.2-0.9-0.5-1.2c-0.3-0.3-0.9-0.6-1.8-0.8c-1.5-0.4-2.6-1-3.4-1.6c-0.8-0.6-1.1-1.4-1.1-2.5
			c0-1,0.4-1.9,1.3-2.6c0.9-0.7,2-1,3.3-1c1.4,0,2.6,0.4,3.4,1.1c0.9,0.7,1.3,1.7,1.3,2.8l0,0.1h-2.5c0-0.6-0.2-1.1-0.6-1.5
			c-0.4-0.3-0.9-0.5-1.6-0.5c-0.6,0-1.1,0.2-1.5,0.5s-0.5,0.7-0.5,1.2c0,0.4,0.2,0.8,0.6,1.1s1,0.6,1.9,0.9c1.4,0.4,2.5,0.9,3.2,1.6
			c0.7,0.6,1.1,1.5,1.1,2.5c0,1.1-0.4,2-1.3,2.6s-2,0.9-3.4,0.9c-1.4,0-2.6-0.3-3.5-1c-1-0.7-1.5-1.7-1.4-3.1l0-0.1h2.5
			c0,0.8,0.2,1.3,0.7,1.7s1,0.5,1.8,0.5c0.7,0,1.2-0.1,1.6-0.4C59.3,38.5,59.5,38.1,59.5,37.7z"/>
	</g>
</g>
</svg>
