<?xml version="1.0" encoding="utf-8"?>
<!-- Generator: Adobe Illustrator 23.0.3, SVG Export Plug-In . SVG Version: 6.00 Build 0)  -->
<svg version="1.1" id="Layer_1" xmlns="http://www.w3.org/2000/svg" xmlns:xlink="http://www.w3.org/1999/xlink" x="0px" y="0px"
	 viewBox="0 0 53 49" style="enable-background:new 0 0 53 49;" xml:space="preserve">
<style type="text/css">
	.st0{fill-rule:evenodd;clip-rule:evenodd;fill:#5ED7C6;}
	.st1{enable-background:new    ;}
	.st2{fill:#572EE5;}
</style>
<title>logo-mobile</title>
<desc>Created with Sketch.</desc>
<g id="Clip-3">
</g>
<g>
	<polygon id="Fill-1" class="st0" points="0,0 0,48.8 48.8,48.8 48.8,38.3 45.3,38.3 45.3,45.3 3.5,45.3 3.5,3.5 34.9,3.5 
		34.9,13.9 45.3,13.9 45.3,20.9 48.8,20.9 48.8,10.5 38.3,0 	"/>
	<g class="st1">
		<path class="st2" d="M17.8,34.4c-0.4,0.5-0.9,0.9-1.6,1.2s-1.6,0.5-2.7,0.5c-1.4,0-2.5-0.4-3.4-1.3s-1.3-2-1.3-3.4v-2.4
			c0-1.4,0.4-2.5,1.3-3.4c0.8-0.9,1.9-1.3,3.3-1.3c1.4,0,2.5,0.3,3.2,1c0.7,0.7,1.1,1.5,1.1,2.6l0,0h-2.1c0-0.6-0.2-1.1-0.5-1.4
			c-0.3-0.3-0.9-0.5-1.5-0.5c-0.7,0-1.3,0.3-1.7,0.8c-0.4,0.5-0.6,1.2-0.6,2.1v2.4c0,0.9,0.2,1.6,0.7,2.1s1,0.8,1.8,0.8
			c0.5,0,1-0.1,1.3-0.2c0.3-0.1,0.6-0.2,0.7-0.4v-2.2h-2.2v-1.6h4.5V34.4z"/>
		<path class="st2" d="M22.1,36h-2.3V24.6h2.3V36z"/>
		<path class="st2" d="M31,31.3h-4.4V36h-2.3V24.6h7.4v1.8h-5.2v3.1H31V31.3z"/>
		<path class="st2" d="M42.5,31.3c0,1.4-0.4,2.6-1.3,3.5c-0.9,0.9-2,1.4-3.4,1.4c-1.4,0-2.5-0.5-3.4-1.4S33,32.7,33,31.3v-2
			c0-1.4,0.4-2.5,1.3-3.5c0.9-0.9,2-1.4,3.4-1.4c1.4,0,2.6,0.5,3.4,1.4c0.9,0.9,1.3,2.1,1.3,3.5V31.3z M40.2,29.3
			c0-0.9-0.2-1.6-0.7-2.2c-0.4-0.6-1.1-0.9-1.8-0.9c-0.8,0-1.4,0.3-1.8,0.9s-0.6,1.3-0.6,2.2v2.1c0,0.9,0.2,1.6,0.6,2.2
			c0.4,0.6,1,0.9,1.8,0.9c0.8,0,1.4-0.3,1.8-0.9s0.7-1.3,0.7-2.2V29.3z"/>
		<path class="st2" d="M50.2,33c0-0.4-0.2-0.8-0.5-1.1s-0.8-0.5-1.6-0.8c-1.3-0.4-2.3-0.9-3-1.4s-1-1.3-1-2.2c0-0.9,0.4-1.7,1.1-2.3
			s1.7-0.9,2.9-0.9c1.3,0,2.3,0.3,3,1c0.8,0.6,1.1,1.5,1.1,2.5l0,0h-2.2c0-0.6-0.2-1-0.5-1.3s-0.8-0.5-1.4-0.5c-0.6,0-1,0.1-1.3,0.4
			c-0.3,0.3-0.5,0.6-0.5,1c0,0.4,0.2,0.7,0.5,0.9c0.3,0.2,0.9,0.5,1.7,0.8c1.2,0.4,2.2,0.8,2.9,1.4s1,1.3,1,2.3c0,1-0.4,1.7-1.1,2.3
			c-0.8,0.6-1.8,0.8-3,0.8c-1.2,0-2.3-0.3-3.2-0.9c-0.9-0.6-1.3-1.5-1.3-2.7l0,0h2.2c0,0.7,0.2,1.2,0.6,1.5c0.4,0.3,0.9,0.5,1.6,0.5
			c0.6,0,1.1-0.1,1.4-0.4S50.2,33.5,50.2,33z"/>
	</g>
</g>
</svg>
